PathFileType	4	(X/Y/Z)	C:/Users/beibeiliu/ov580/test_trc/User2\sequence.19_training_dense_left.trc
DataRate	CameraRate	NumFrames	NumMarkers	Units	OrigDataRate	OrigDataStartFrame	OrigNumFrames
120	120	22	19	mm	120	376	500
Frame#	Time	ThumbCMC			ThumbMCP			ThumbIP			ThumbTip			IndexMCP			IndexPIP			IndexTip			MiddleMCP			MiddlePIP			MiddleTip			RingMCP			RingPIP			RingTip			PinkyMCP			PinkyPIP			PinkyTip			BackHand1			BackHand2			BackHand3	
		X0	Y0	Z0	X1	Y1	Z1	X2	Y2	Z2	X3	Y3	Z3	X4	Y4	Z4	X5	Y5	Z5	X6	Y6	Z6	X7	Y7	Z7	X8	Y8	Z8	X9	Y9	Z9	X10	Y10	Z10	X11	Y11	Z11	X12	Y12	Z12	X13	Y13	Z13	X14	Y14	Z14	X15	Y15	Z15	X16	Y16	Z16	X17	Y17	Z17	X18	Y18	Z18	
375	3.125	-212.745	42.3638	45.624	-215.686	65.261	20.2098	-214.483	81.8142	-10.9944	-209.866	71.6616	-42.3535	-240.783	12.1476	-29.5073	-232.442	6.9589	-61.09	-197.079	20.7478	-54.1722	-243.981	-9.48038	-34.5192	-228.521	-11.5426	-69.5483	-194.492	0.885283	-54.1052	-235.248	-26.2916	-27.603	-226.742	-26.0292	-59.1935	-190.111	-15.3653	-46.7332	-219.421	-44.2081	-15.3291	-214.36	-41.4231	-46.1564	-184.71	-27.0379	-49.6521	-228.331	-24.2601	20.7286	-227.135	-22.3584	55.5619	-234.86	10.6981	39.3082	
376	3.13333	-211.959	41.0909	44.3011	-215.025	66.925	20.9204	-215.272	78.2902	-9.80859	-211.882	74.8139	-38.3505	-247.782	13.3467	-30.0854	-238.042	11.0375	-61.5379	-206.309	18.5525	-55.7922	-251.005	-8.52432	-33.6827	-237.727	-6.59221	-68.2652	-201.559	3.26953	-54.9316	-244.478	-26.9097	-31.0407	-233.374	-28.8578	-58.696	-201.984	-13.0467	-51.6502	-228.717	-40.0951	-15.2587	-223.893	-41.122	-46.5927	-193.086	-24.5782	-49.8697	-231.312	-24.0131	26.991	-229.495	-20.2093	54.2329	-236.161	12.1136	35.2365	
377	3.14167	-210.288	43.8476	46.8382	-214.277	64.5498	22.4985	-215.414	78.6599	-7.30907	-214.022	76.197	-35.1499	-252.938	21.7035	-27.0474	-245.998	17.7175	-58.0735	-211.65	19.6396	-53.0485	-260.002	-0.167489	-33.8502	-248.264	-3.06819	-65.5163	-208.098	1.58672	-53.042	-252.094	-19.0938	-28.1097	-244.333	-22.8896	-55.4496	-210.048	-12.2021	-50.1236	-234.394	-37.4745	-11.7701	-233.992	-39.821	-44.7804	-204.079	-26.1761	-50.6824	-234.44	-19.4582	27.1492	-230.483	-23.0763	55.5811	-237.771	13.3196	39.8188	
378	3.15	-209.83	43.1181	44.8974	-211.977	65.6596	22.8155	-213.104	83.8356	-5.84533	-214.279	74.7476	-34.9198	-256.683	23.1001	-24.3144	-249.685	20.8194	-56.9226	-215.147	18.6977	-50.3106	-263.268	2.71899	-28.7447	-251.685	-3.06311	-62.6799	-214.705	2.74988	-52.5888	-256.026	-18.6313	-21.7813	-252.873	-19.9505	-54.5527	-214.913	-11.757	-47.6407	-243.063	-36.3977	-11.644	-241.371	-36.4213	-44.8506	-213.67	-24.1734	-51.3586	-237.836	-21.3047	27.9063	-236.204	-22.1973	56.4581	-238.166	16.6259	43.2801	
379	3.15833	-206.273	43.7011	47.333	-207.16	66.61	26.6892	-209.316	78.1989	-3.01153	-212.16	77.9636	-35.7052	-255.762	27.132	-18.9382	-257.796	20.6127	-51.106	-219.441	22.3453	-49.9377	-268.712	7.92654	-26.5266	-262.781	1.106	-59.0592	-222.73	4.72562	-52.9181	-264.458	-9.97567	-23.0933	-260.992	-15.7241	-50.8336	-225.697	-10.3146	-50.1172	-249.601	-30.6813	-11.1055	-251.313	-30.982	-42.3555	-220.4	-28.5173	-50.8537	-240.948	-21.0045	28.6541	-237.355	-19.8239	57.5138	-236.149	19.8082	43.0144	
380	3.16667	-205.687	40.3742	45.345	-205.1	66.3558	24.664	-207.175	81.8031	-5.475	-211.186	72.9147	-33.0608	-260.138	33.7348	-19.3555	-258.864	26.0091	-49.993	-223.166	26.7303	-50.7515	-268.982	12.3239	-21.6892	-267.835	7.48049	-58.0175	-224.239	8.40164	-49.9476	-267.773	-6.9548	-20.3167	-264.313	-7.38478	-52.2589	-228.2	-7.50643	-47.4809	-255.195	-28.8409	-9.76822	-258.447	-25.8832	-40.1433	-226.891	-25.2147	-49.7528	-247.645	-15.2371	25.9066	-238.59	-14.2474	56.8988	-237.85	19.2594	41.0128	
381	3.175	-204.531	38.6621	45.6478	-202.528	64.3687	24.8014	-204.536	83.0118	-5.65897	-207.325	76.2763	-33.3162	-260.979	36.0592	-18.377	-262.302	36.6744	-47.7389	-222.721	26.729	-47.191	-274.448	17.6578	-23.0544	-269.286	15.194	-57.0495	-229.638	10.561	-50.9703	-271.789	-3.59547	-17.1423	-270.301	-0.999819	-49.2851	-234.86	-5.31597	-49.9203	-257.774	-24.2685	-7.93857	-264.18	-21.0799	-41.1773	-233.917	-17.5764	-49.4872	-250.397	-12.1986	28.1079	-241.116	-15.1137	60.2015	-237.363	20.2552	45.4711	
382	3.18333	-197.764	40.6243	48.5033	-196.751	59.7637	25.6429	-194.374	80.8062	-1.92854	-201.556	79.8738	-32.6032	-255.917	43.505	-14.1165	-259.088	40.3678	-48.4961	-223.944	32.2707	-49.0283	-274.094	28.9947	-20.7371	-270.852	27.0497	-56.0288	-231.323	13.981	-51.1717	-276.559	7.28352	-17.5669	-274.991	7.01165	-47.006	-237.536	-1.79488	-49.3811	-267.457	-18.9475	-8.83442	-269.471	-10.8942	-38.1337	-238.822	-16.2999	-53.8787	-250.167	-4.3786	27.0683	-241.727	-11.9401	57.8412	-237.114	20.9563	46.1779	
383	3.19167	-198.823	36.2645	44.9688	-188.439	60.6786	28.2527	-190.499	76.7452	-2.63112	-196.861	78.1939	-32.0337	-255.243	52.552	-11.9588	-260.144	48.5296	-43.2211	-223.902	36.3929	-47.8308	-272.487	31.586	-15.6222	-274.6	31.9373	-51.2451	-232.761	21.7169	-52.2636	-274.899	16.3276	-14.8691	-275.948	18.3127	-44.8254	-241.311	7.40396	-47.8862	-269.233	-11.5368	-7.37456	-271.33	-1.54883	-39.686	-241.891	-10.761	-52.0091	-250.813	-1.26383	29.0096	-246.039	-11.2946	60.8147	-231.786	27.5772	47.6393	
384	3.2	-190.592	34.8647	50.7678	-185.136	58.0644	27.8903	-179.745	78.6156	2.00856	-188.055	78.463	-27.2666	-253.107	57.1029	-10.1774	-257.895	58.4396	-40.0759	-226.734	36.1043	-46.319	-269.082	44.4218	-12.2147	-272.898	43.2203	-48.0317	-235.001	24.892	-49.4816	-275.92	24.2283	-10.5402	-279.863	25.8746	-42.2253	-245.968	7.78521	-46.9232	-270.471	-4.14318	-3.54926	-275.912	8.48767	-36.1703	-247.59	-1.37645	-51.8196	-255.742	2.41315	30.0167	-249.519	-6.96955	60.3981	-233.222	29.1029	46.9831	
385	3.20833	-190.871	29.1399	47.4063	-179.564	54.2691	28.9141	-171.895	71.388	3.76659	-178.656	78.5986	-26.0258	-245.811	59.7841	-3.94781	-251.629	68.8935	-36.3928	-223.87	42.9959	-46.254	-265.783	55.232	-9.63829	-268.953	53.2026	-45.6394	-236.984	29.6845	-47.5856	-275.94	31.7904	-7.35949	-277.572	39.7272	-37.9547	-245.717	14.9818	-44.717	-275.542	4.61905	-0.781748	-281.51	19.2384	-29.8244	-254.77	6.85658	-48.9316	-257.522	7.38352	34.31	-245.778	-2.94525	64.6649	-228.854	27.7395	49.6471	
386	3.21667	-187.343	22.8286	49.182	-172.408	47.2574	28.0668	-163.084	67.0218	3.5112	-170.846	74.1245	-24.9203	-240.32	68.7984	-2.16282	-246.874	71.1975	-33.8301	-221.531	49.8093	-46.4728	-262.593	61.8458	-6.15244	-264.276	65.9894	-41.1022	-235.494	35.2087	-45.4024	-272.565	44.1382	-5.472	-273.51	49.5603	-34.6149	-249.102	23.7971	-44.23	-272.856	15.9011	1.39034	-279.472	29.4828	-31.8654	-259.109	14.2003	-46.2202	-256.904	12.8055	33.3368	-247.055	-0.0482499	64.2868	-226.386	30.6191	51.3484	
387	3.225	-181.003	21.6226	47.2163	-165.402	39.7284	28.6237	-157.19	59.6504	3.01374	-165.493	67.425	-24.3192	-231.574	72.554	-0.31661	-238.667	79.3883	-30.8751	-220.831	51.5999	-43.7944	-254.975	70.4534	-4.55419	-258.361	73.1312	-37.1243	-235.884	39.7519	-44.5487	-268.065	50.7216	-1.82054	-270.398	56.8856	-33.4523	-245.759	27.5437	-40.6288	-273.995	24.4305	3.90405	-279.278	38.3872	-29.5635	-260.855	22.0874	-45.0518	-253.316	17.874	36.2143	-249.006	4.50103	64.2808	-220.367	28.6567	52.3307	
388	3.23333	-181.114	16.7038	45.6874	-162.451	29.8971	29.2261	-150.038	51.9876	2.7593	-160.607	60.9376	-26.3892	-226.402	70.3672	3.17632	-233.586	81.1262	-25.2209	-217.655	49.4492	-42.1957	-247.585	73.7777	-1.29253	-254.623	75.4251	-34.7239	-234.517	41.5067	-41.9009	-263.861	55.0881	-0.754745	-265.969	61.6649	-32.1552	-243.455	33.1922	-38.3627	-270.534	32.9035	4.28252	-276.941	45.0592	-24.0026	-258.026	28.828	-43.0445	-249.699	19.8169	39.0735	-243.173	3.84724	68.4808	-215.472	29.7568	54.2474	
389	3.24167	-182.192	7.2145	46.6504	-163.478	24.8321	25.8326	-148.022	44.895	-0.113702	-161.64	54.7416	-28.0419	-217.258	70.1295	3.74336	-229.034	82.8534	-24.0417	-214.891	54.0757	-44.355	-244.379	71.7111	0.794835	-245.635	76.4503	-37.3074	-229.275	42.403	-40.0847	-261.2	58.0319	0.451929	-263.546	63.7407	-31.8882	-247.95	33.6977	-39.2837	-271.634	36.1426	5.61955	-271.617	50.0214	-25.5572	-256.46	30.2045	-41.3203	-250.238	20.2954	38.5615	-243.88	3.13139	66.9137	-215.369	27.9261	51.5267	
390	3.25	-176.338	7.14474	43.5755	-160.417	21.5189	23.1828	-146.488	37.296	-3.50234	-157.595	47.6271	-29.4513	-213.458	67.9701	2.4177	-225.396	80.6823	-25.0482	-214.432	51.5505	-43.1277	-237.904	73.8647	-1.7098	-241.393	77.5133	-35.8757	-226.814	41.8339	-40.718	-258.919	61.6254	-0.488505	-257.711	65.3418	-31.5123	-244.984	30.5583	-38.234	-269.304	35.9171	5.87008	-269.576	51.5039	-25.1404	-257.765	31.1309	-43.8888	-246.695	24.6199	36.8721	-247.151	6.08146	65.44	-212.834	26.6675	51.7277	
391	3.25833	-179.827	0.770733	42.3151	-157.887	16.5625	21.6436	-145.362	34.5842	-8.2212	-158.304	41.7671	-32.6822	-210.376	65.4521	0.873022	-217.479	80.4444	-28.9431	-210.048	44.327	-44.7605	-234.107	72.202	-2.07765	-237.258	77.3379	-36.9554	-226.507	36.6638	-39.2842	-250.749	62.777	-0.279791	-259.01	67.3341	-29.2427	-244.666	31.9372	-39.4366	-267.905	36.6008	4.69886	-268.547	50.6739	-26.0741	-256.722	28.6045	-44.172	-248.505	25.4375	37.0318	-239.423	5.2676	66.9588	-211.259	23.227	51.131	
392	3.26667	-176.681	-0.228016	40.9878	-154.477	12.3902	19.3759	-146.164	24.5618	-7.36702	-152.618	33.2591	-32.5641	-210.314	64.0858	-1.30601	-216.421	75.9388	-31.5366	-210.357	40.1613	-45.7075	-230.378	68.942	-3.21393	-240.592	74.9222	-37.3372	-225.821	35.0691	-41.0133	-248.72	59.2044	0.00756867	-252.292	68.0179	-28.9866	-242.38	33.7838	-40.2224	-265.355	38.5392	4.72441	-266.425	50.9973	-22.2305	-256.156	29.3738	-43.2156	-242.629	22.9341	37.1506	-239.31	8.24335	63.8294	-209.571	23.7107	49.1687	
393	3.275	-176.312	-5.21867	41.0399	-152.296	7.65076	18.7611	-143.459	23.5865	-12.449	-156.793	29.1857	-36.3441	-209.119	60.8124	-4.52624	-214.46	71.034	-35.1469	-210.411	34.4242	-45.5562	-229.75	66.9143	-5.29306	-236.063	71.1225	-40.591	-224.783	33.1236	-44.0916	-248.181	55.8101	0.600684	-253.088	65.2051	-30.3573	-241.41	29.5016	-40.1335	-264.95	36.4189	5.54109	-264.371	50.4633	-25.5665	-257.48	25.0684	-46.8432	-244.657	22.1097	37.0993	-236.589	5.87378	63.3271	-207.829	19.6306	50.1566	
394	3.28333	-176.751	-5.9237	39.7424	-151.402	3.06316	17.6658	-142.999	18.5062	-13.6138	-149.119	25.2683	-39.5762	-203.485	58.6387	-6.27709	-210.82	67.3715	-39.5383	-207.34	34.2955	-47.3452	-224.851	64.3887	-6.07811	-232.576	71.3553	-41.1193	-224.79	28.4984	-43.0184	-243.996	55.9335	-0.902532	-248.397	63.484	-33.0379	-245.169	29.0406	-43.2337	-264.126	34.4846	7.07147	-264.598	50.434	-23.1606	-259.55	25.7634	-46.4408	-239.853	22.2203	35.3097	-234.372	7.44339	62.8655	-203.056	20.2334	47.5151	
395	3.29167	-172.898	-6.02778	37.723	-154.779	1.99934	15.491	-143.225	13.127	-14.0719	-148.676	21.111	-40.8922	-199.854	56.6042	-9.19084	-212.394	64.5238	-39.2835	-209.853	31.1412	-48.7053	-224.044	65.5363	-9.75941	-230.568	67.4522	-44.0656	-225.156	28.3169	-47.1977	-243.98	56.6913	-4.50681	-247.155	62.3047	-33.044	-241.061	24.4694	-42.3031	-257.698	34.811	5.81828	-264.666	49.3151	-25.4873	-255.355	24.0142	-48.079	-237.276	22.9294	33.2802	-235.659	6.88936	64.5854	-204.712	19.2646	47.7709	
396	3.3	-172.551	-9.04376	38.2212	-153.234	-1.2785	14.2581	-139.293	11.048	-17.6742	-148.905	16.72	-44.75	-199.198	53.1256	-12.9874	-211.147	60.102	-43.2449	-208.903	22.0648	-49.5878	-222.592	59.0109	-11.2257	-228.389	61.0299	-48.7702	-224.127	20.9413	-45.81	-241.173	54.2336	-6.9245	-246.676	59.2828	-34.7841	-241.212	20.2322	-44.4196	-258.068	34.6156	4.02025	-261.767	47.4646	-25.6332	-253.103	26.756	-46.0937	-237.068	22.8792	34.7833	-235.884	10.2338	65.1092	-202.204	20.1699	42.9637	
